<svg xmlns="http://www.w3.org/2000/svg" width="1374" height="982"><path fill="#535354" d="M819 0c9 1 9 1 15 3l1 202h80c1.843-1.843 1.391-4.833 1.57-7.317l.148-2.023q.246-3.38.481-6.761l.35-4.829q.477-6.58.943-13.16c.327-4.591.66-9.181.991-13.772q.944-13.066 1.877-26.133 1.672-23.358 3.358-46.714.591-8.194 1.176-16.387l.734-10.235.338-4.723c.568-7.994 1.163-15.978 2.034-23.946 42.411 12.279 84.295 32.225 122.349 54.463a521 521 0 0 0 7.924 4.486c13.29 7.42 26.162 15.455 38.727 24.051l2.108 1.037c3.017 3.13 2.442 6.775 2.4 10.89l.019 2.815c.016 3.141.004 6.282-.008 9.423q.008 3.394.023 6.789c.02 6.241.015 12.482.007 18.724-.005 6.032.01 12.064.024 18.097q.039 18.514.035 37.03a23264 23264 0 0 0 .027 38.977l.017 11.571q.061 41.003.077 82.004a107245 107245 0 0 0 .066 82.157l.03 24.654q.03 25.113.058 50.225l.003 2.333c.057 51.425.087 102.85.114 154.274l2.507.028c3.748.054 7.495.138 11.243.222l3.945.043 3.79.098 3.49.063c3.63.655 4.833 1.625 7.025 4.546.492 3.232.492 3.232.481 7.142l.01 2.182c.007 2.414-.015 4.826-.037 7.239q-.001 2.595.002 5.189c.001 4.698-.023 9.396-.05 14.094-.025 4.913-.028 9.826-.033 14.738-.012 9.308-.045 18.615-.085 27.922-.045 10.583-.067 21.166-.087 31.749q-.062 31.32-.19 62.638c-.022 6.186.444 7.32 2.989 14.107h84c-.712-10.779-.712-10.779-1.971-21.413l-.566-3.853-.297-1.977q-.466-3.135-.918-6.274c-.857-5.936-1.721-11.87-2.609-17.802q-.818-5.487-1.598-10.98-.3-2.07-.616-4.14c-2.5-16.327-2.5-16.327.575-21.561 4.426-3.694 7.664-4.526 13.363-4.685l2.156-.076c2.336-.076 4.672-.125 7.008-.173q2.451-.067 4.902-.139 5.127-.141 10.255-.248c4.37-.093 8.738-.217 13.107-.35 3.372-.1 6.744-.185 10.117-.265q2.415-.06 4.83-.133c2.257-.066 4.513-.111 6.77-.151l3.881-.092c4.215.364 6.812 1.511 10.611 3.312 2.313.377 2.313.377 4.438.375 5.093.444 8.708 2.295 12.562 5.625 3.632 4.88 3.81 10.129 3 16-1.333 4.417-3.601 7.103-7.562 9.438-3.514 1.502-6.41 1.73-10.215 1.66l-2.973-.043L1298 797q-1.072 11.184-2.136 22.37-.362 3.804-.728 7.609-.524 5.469-1.042 10.939l-.332 3.435-.303 3.214-.27 2.82c-.183 2.532-.189 5.074-.189 7.613l81 1c-3.66 5.49-7.03 10.484-11.312 15.375q-1.455 1.687-2.907 3.375l-1.433 1.664c-1.938 2.28-3.795 4.622-5.66 6.961-4.286 5.273-8.881 10.219-13.553 15.148l-1.705 1.801-1.636 1.69c-1.821 1.934-1.821 1.934-3.245 4.06-2.34 3.21-4.188 5.53-8.085 6.666-3.118.286-6.147.315-9.277.26l-3.595.033c-3.28.022-6.557.009-9.837-.02-3.542-.022-7.083.002-10.624.02q-9.197.036-18.393-.002c-8.864-.034-17.728-.024-26.593-.004-14.382.033-28.765.03-43.147.004q-20.955-.039-41.908-.019l-2.61.003-12.965.014c-35.839.042-71.677.025-107.515-.029l.026 3.839c.065 9.719-4.333 17.497-10.026 25.161l-1.988 1.848c-2.69 2.878-4.13 6.179-5.762 9.715-3.415 7.134-7.383 13.188-12.25 19.437l-2 3c-2.977.366-5.754.534-8.741.579l-2.746.074c-3.01.075-6.021.124-9.033.167l-3.12.049q-8.192.118-16.385.181-6.759.06-13.516.246a699 699 0 0 1-16.346.244q-3.105.03-6.206.138c-16.98.558-16.98.558-22.974-4.898-2.875-3.078-5.32-6.371-7.644-9.878-1.993-2.941-4.264-5.612-6.539-8.34l-2.14-2.683L889 950h-1l-3 27-5.597.06a1673847 1673847 0 0 0-148.913 1.594l-3.302.036-52.441.56q-27.045.288-54.09.58-15.13.163-30.262.323a109172 109172 0 0 0-36.772.396c-27.7.303-55.397.673-83.094 1.136-18.84.313-37.672.447-56.514.384q-5.51-.014-11.017-.02-10.5-.016-20.998-.049l.429-1.694q2.245-8.884 4.478-17.77a5590 5590 0 0 1 1.664-6.595c2.76-10.91 5.487-21.818 7.82-32.828l.505-2.375c.613-2.969 1.104-5.698 1.104-8.738l-3.236-.013-49.715-.2c-27.213-.108-54.426-.224-81.639-.363l-39.284-.198c-30.057-.151-60.111-.263-90.168-.151a5018 5018 0 0 1-17.931.033h-10.214c-7.514.001-15.025.049-22.538.133-4.497.04-8.993.034-13.49.015q-3 0-5.998.062c-15.933.316-15.933.316-21.882-5.158-2.144-2.261-4.038-4.667-5.905-7.16a259 259 0 0 0-3.375-3.75L29 891q-1.463-1.67-2.93-3.336c-6.445-7.344-12.66-14.809-18.632-22.543-1.71-2.19-3.44-4.297-5.25-6.398C0 856 0 856 0 854l2.55.017q30.695.2 61.392.294c9.896.03 19.792.073 29.688.142q12.936.09 25.872.112c4.568.007 9.135.026 13.703.07q6.446.059 12.893.044 2.367.002 4.736.036c2.154.03 4.305.023 6.459.007l3.654.016c4.195-1.014 4.849-3.17 7.053-6.738 2.1-.754 2.1-.754 4.391-.76l2.643-.05 2.875.037 3.046-.032c3.323-.028 6.644-.014 9.967 0q3.455-.016 6.91-.041a2554 2554 0 0 1 18.19-.03c6.186.001 12.373-.031 18.56-.062 12.14-.053 24.278-.066 36.418-.062v-36l-34-1-1-64-15.846-.028c-17.266-.034-34.533-.09-51.8-.156-10.47-.04-20.94-.072-31.41-.087q-13.69-.019-27.38-.084c-4.831-.022-9.662-.038-14.494-.037q-6.825 0-13.651-.05-2.502-.013-5.002-.004C60.605 745.6 60.605 745.6 54 741c-4.051-5.09-5.124-8.82-5.131-15.222l-.012-3.974.003-4.392-.01-4.646q-.011-6.4-.01-12.8c-.002-4.597-.01-9.194-.016-13.792q-.02-15.086-.024-30.173-.005-9.417-.012-18.833-.019-26.062-.026-52.125v-6.75l-.003-10.176q-.007-27.249-.045-54.498-.035-27.963-.037-55.926.001-15.705-.025-31.41-.023-13.374-.012-26.747c.004-4.55.003-9.1-.011-13.649q-.019-6.248 0-12.495a639 639 0 0 0-.01-4.52c-.085-15.768-.085-15.768 5.756-22.685 4.758-3.964 8.72-4.439 14.832-4.465l2.166-.018c2.39-.017 4.778-.02 7.167-.023l5.145-.03c4.653-.028 9.305-.043 13.958-.056 4.863-.015 9.726-.042 14.59-.068 9.208-.047 18.416-.083 27.624-.116 10.483-.039 20.967-.088 31.45-.138q32.347-.154 64.693-.273l-.012-3.226q-.146-38.859-.115-77.719c.009-12.528 0-25.056-.055-37.584-.046-10.92-.058-21.84-.028-32.76.015-5.782.012-11.562-.032-17.344-.042-5.445-.037-10.887.005-16.33a337 337 0 0 0-.032-5.99c-.203-15.087-.203-15.087 3.47-19.977 2.516-2.048 4.922-3.587 7.799-5.07l3.074-2.18 2.613-1.695 3.07-2.008L259 117a1253 1253 0 0 0 3.43-2.305A717 717 0 0 1 314 83l2.62-1.468c20.912-11.69 42.239-22.447 64.192-32.032l1.981-.865a894 894 0 0 1 21.531-9.041l1.94-.792C410.764 37 410.764 37 413 37a422794 422794 0 0 1 4.928 66.135l2.109 28.295a8737 8737 0 0 1 2.89 39.712l.212 3.025q.48 6.836.945 13.673l.327 4.703.138 2.098c.251 3.57.744 6.825 1.451 10.359h78l1-197c12-3 12-3 15-3l.078 3.277c1.657 50.235 20.398 97.982 55.495 134.244 1.483 1.537 2.945 3.094 4.407 4.65 32.653 34.236 81.603 56.092 128.873 57.94 7.768.167 15.538.12 23.307.084q3.31-.005 6.62-.006c8.094-.01 16.188-.038 24.283-.064L818 205zM426 222c.018 1.933.112 3.865.234 5.794l.236 3.823.28 4.238.281 4.433a4762 4762 0 0 0 1.14 17.287c.784 11.72 1.598 23.439 2.433 35.156q.403 5.659.792 11.319.478 6.963.979 13.924.186 2.62.363 5.24c.164 2.413.339 4.825.516 7.236l.139 2.152c.272 3.556.702 6.345 2.607 9.398q13.274.034 26.546.052 6.163.007 12.326.023 5.942.016 11.885.02 2.272.003 4.544.01 3.171.01 6.343.009l3.654.006c2.619.188 2.619.188 3.702-1.12.098-1.541.126-3.087.127-4.631l.009-3.034-.007-3.356.006-3.513q.004-5.78-.002-11.56l.003-7.992q.003-8.388-.006-16.777-.007-9.711.002-19.422.007-8.324.003-16.647-.003-4.977.001-9.955.003-5.545-.007-11.092l.007-3.356-.009-3.034-.001-2.652c.093-1.98.093-1.98-1.126-2.979-2.398-.1-4.767-.136-7.166-.13l-2.271-.005q-3.735-.004-7.47.002l-5.167-.003q-5.423-.001-10.844.006-6.967.006-13.933-.004-5.337-.005-10.675 0-2.57 0-5.139-.002-3.585-.003-7.169.007l-2.166-.007c-3.282-.268-3.282-.268-6 1.136m94 0a74 74 0 0 0-.127 4.631l-.009 3.034.007 3.356-.006 3.513q-.004 5.78.002 11.56l-.003 7.992q-.003 8.388.006 16.777.007 9.711-.002 19.422-.007 8.324-.003 16.647.003 4.977-.001 9.955-.003 5.545.007 11.092l-.007 3.356.009 3.034.001 2.652c-.093 1.98-.093 1.98 1.126 2.979 2.915.11 5.807.154 8.723.158l2.774.015q2.994.016 5.988.026 4.741.019 9.483.053c8.99.062 17.98.116 26.97.15q8.24.032 16.48.1 3.14.021 6.279.026c2.935.005 5.869.028 8.803.055l2.611-.009c6.36.088 11.135 1.193 16.202 5.301 3.688 4.644 4.008 9.292 4.101 15.05l.059 2.266c.06 2.374.106 4.748.152 7.122l.117 4.845q.142 5.921.258 11.842l5 1q.721-2.124 1.438-4.25l.808-2.39c.823-2.296.823-2.296.977-4.532.777-1.828.777-1.828 3.062-2.923 5.322-1.296 10.479-1.21 15.938-1.206l3.57-.013q3.727-.008 7.456-.002c3.804.003 7.606-.02 11.41-.045q3.626-.004 7.251-.002l3.444-.028 3.217.019 2.818-.002c3.186.456 5.039 1.458 7.611 3.374 1.688 3.375 1.688 3.375 3 7a901 901 0 0 0 2 5q21.293.034 42.584.052 9.885.007 19.77.023 9.533.016 19.063.02 3.645.003 7.29.01 5.088.01 10.174.009l3.077.01 2.784-.004 2.433.003c1.845.077 1.845.077 2.825-1.123.1-2.15.126-4.302.127-6.453l.005-2.067c.004-2.303 0-4.605-.003-6.908l.006-4.931q.005-6.715 0-13.432c-.003-4.674 0-9.35 0-14.024q.004-11.778-.005-23.556-.007-13.636.002-27.274.007-11.687.003-23.373-.003-6.99.001-13.98.004-6.568-.005-13.138 0-2.418.002-4.837.002-3.286-.006-6.574l-.001-3.725c.185-2.642.185-2.642-1.126-3.728a77 77 0 0 0-4.759-.126l-3.139-.008-3.49.007-3.676-.005q-5.074-.004-10.147.001-5.462.003-10.924-.004-10.71-.005-21.42 0a30177 30177 0 0 1-24.916 0q-23.565-.004-47.13.006-20.244.005-40.486-.001a87293 87293 0 0 0-51.959-.004h-2.486q-8.695.002-17.39-.002-10.589-.005-21.176.003-5.408.005-10.816 0-5.849-.003-11.697.006l-3.491-.007-3.14.008h-2.73c-2.024-.099-2.024-.099-3.028 1.126m314 0c-.1 2.15-.126 4.302-.127 6.453l-.005 2.067c-.004 2.303 0 4.605.003 6.908l-.006 4.931q-.005 6.715 0 13.432c.003 4.674 0 9.35 0 14.024q-.004 11.778.005 23.556.007 13.636-.002 27.274-.007 11.687-.003 23.373.003 6.99-.001 13.98-.004 6.568.005 13.138 0 2.418-.002 4.837-.002 3.285.006 6.574l.001 3.725c-.185 2.642-.185 2.642 1.126 3.728 2.086.094 4.176.117 6.264.114h1.98c2.17 0 4.34-.009 6.51-.016l4.502-.005q5.935-.006 11.871-.024 6.053-.014 12.105-.02 11.884-.016 23.768-.049c1.552-4.205 2.337-7.96 2.658-12.425l.289-3.857.29-4.194.326-4.446c.294-4.016.578-8.033.861-12.05.298-4.213.604-8.426.909-12.638q.766-10.617 1.518-21.235.868-12.248 1.755-24.494.944-13.068 1.878-26.137l.54-7.5q.426-5.914.842-11.83.153-2.16.31-4.322c.97-11.425.97-11.425.824-22.872-1.706-1.706-3.852-1.126-6.127-1.136l-2.223.007-2.33-.006q-3.833-.004-7.664.002l-5.302-.003q-5.563-.001-11.127.006-7.147.006-14.296-.004-5.476-.005-10.953 0-2.636 0-5.272-.002-3.678-.003-7.356.007l-2.223-.007c-3.348-.28-3.348-.28-6.127 1.136M719 440v3c2.097 2.085 2.097 2.085 4.75 4.188 6.1 5.326 8.401 9.958 10.688 17.562.95 2.898 1.667 4.381 3.625 6.813 3.735 1.827 6.63 1.707 10.73 1.48C751 473 751 473 753 474c.594 2.649.742 5.292 1 8 2.575.721 5.024 1.139 7.688 1.5C765 484 765 484 766 485a175 175 0 0 1-.25 4.875c-.105 2.696-.105 2.696.25 5.125 2.356 1.88 2.356 1.88 5 3 1.18 3.162 1.118 4.675-.04 7.867-1.616 3.068-3.248 6.117-4.96 9.133-.396.701-.791 1.403-1.2 2.125-5.296 8.327-14.112 11.651-23.077 14.797-2.816.906-2.816.906-4.723 3.078.186 2.82.48 5.521.875 8.313 2.81 22.735-.192 45.052-12.875 64.687-1.84 2.21-3.687 4.367-5.68 6.441-4.005 7.761-.478 18.529 1.055 26.621l.672 3.682c.63 3.423 1.29 6.84 1.953 10.256l.483 2.78c.68 4.355.68 4.355 3.261 7.729 2.037 1.276 4.124 2.382 6.256 3.491 9.222 5.55 12.39 13.255 15.422 23.285.44 1.725.44 1.725 1.578 2.715 1.907.214 3.815.422 5.726.595 11.321 1.027 22.01 2.885 32.383 7.772 6.245 2.89 12.618 4.976 19.203 6.946l1.891.57c13.227 3.965 26.661 6.836 40.19 9.554l2.385.479q2.199.44 4.401.867c4.358.862 8.57 1.946 12.821 3.217 1.685-1.685 1.142-3.789 1.158-6.099l.03-3.297.023-3.592.086-7.455q.063-5.905.104-11.812c.028-3.786.074-7.572.122-11.358l.01-3.574.05-3.326.025-2.925c.458-2.99 1.326-4.38 3.392-6.562 1.973-.469 1.973-.469 4.063-.5 3.845-.022 3.845-.022 5.132-2.012 1.148-3.55 1.37-7.094 1.615-10.791l.19-2.561c.21-2.836.407-5.673.604-8.51l.444-6.095c.403-5.525.794-11.05 1.184-16.576.41-5.784.828-11.569 1.245-17.353q1.049-14.583 2.083-29.167 1.194-16.839 2.41-33.676 1.292-17.94 2.573-35.88l.74-10.317q.584-8.13 1.158-16.26.21-2.975.425-5.95C899.15 455.184 899.15 455.184 899 441c-1.109-1.334-1.109-1.334-3.919-1.123l-3.997.003-2.217-.003c-2.471-.002-4.942.004-7.412.01l-5.291-.001q-7.206.001-14.41.013c-5.015.006-10.03.006-15.043.008q-14.253.005-28.507.021-16.222.016-32.444.022-33.38.016-66.76.05m586 328c-1.468 5.091-2.901 10.189-4.25 15.313l-.602 2.166c-.473 1.819-.82 3.67-1.148 5.521 2.36 2.36 3.02 2.344 6.25 2.438 3.422-.078 5.48-.5 8.188-2.625 3.58-3.93 4.627-5.983 4.437-11.313-.987-3.949-1.929-5.709-4.875-8.5-3.814-2.154-3.814-2.154-8-3m-893 43c-.101 2.655-.14 5.283-.133 7.938l-.003 2.41q0 2.526.006 5.053c.005 2.588 0 5.175-.007 7.763q0 2.45.004 4.899l-.006 2.36c-.32 3.585-.32 3.585 1.139 6.577 2.915.5 2.915.5 6 0 2.749-3.706 4.125-7.848 5.516-12.2l.667-2.048q.69-2.13 1.37-4.264a942 942 0 0 1 2.127-6.537l1.336-4.15.65-1.976c1.264-3.447 1.264-3.447.334-6.825a2399 2399 0 0 0-8.937-.062l-2.577-.026-2.45-.01-2.27-.016c-1.793-.08-1.793-.08-2.766 1.114"/><path fill="#FEFEFE" d="m76.715 353.871 2.782-.005c3.11-.005 6.22-.002 9.331 0l6.716-.007q9.269-.008 18.536-.004 8.957-.002 17.912-.009 20.592-.013 41.182-.013a123556 123556 0 0 0 40.936-.008l2.296-.001a206508 206508 0 0 1 85.976-.01q38.216.001 76.431-.02a150764 150764 0 0 1 97.225-.023q18.144 0 36.288-.015 18.225-.013 36.45-.003 9.88.007 19.76-.005 9.034-.011 18.067.002 3.28.003 6.557-.005c2.958-.007 5.915-.002 8.873.006l2.606-.015c5.073.03 8.394.356 12.084 3.935 1.792 3.267 1.68 5.871 1.713 9.589l.03 2.194c.029 2.389.035 4.778.038 7.167l.03 4.992q.026 5.228.022 10.458c0 4.463.04 8.926.092 13.39.034 3.435.04 6.87.038 10.307a413 413 0 0 0 .04 4.936c.03 2.303.02 4.604.003 6.907l.013 3.967c-1.026 4.734-2.877 5.623-6.742 8.422-2.46 3.988-3.304 7.412-4 12l-3-.07c-15.017-.253-25.428 2.855-36.578 13.382C550.785 484.884 551.312 512.31 552 537c.322 6.06 1.05 12.01 2 18l.59 3.79c2.84 15.963 8.335 30.29 16.341 44.334a251 251 0 0 1 2.157 3.867c1.972 3.692 1.972 3.692 5.037 6.446 2.549 2.125 2.534 4.33 3.223 7.458 2.63 8.492 12.506 13.762 19.652 18.105 2.308 1.092 4.627 2.052 7 3 .28 3.369.53 6.735.738 10.11.164 2.432.382 4.861.68 7.28.272 3.137.387 5.562-.418 8.61-2.966 2.794-6.333 4.293-10 6-7.38 5.251-11.483 11.338-13.375 20.125-1.276 4.115-2.105 5.537-5.762 7.914-3.42 1.598-6.953 2.866-10.514 4.11-4.087 1.48-8.048 3.254-12.037 4.976a524 524 0 0 1-19.425 7.734c-2.755 1.089-5.403 2.301-8.075 3.578-5.71 2.67-11.624 4.591-17.62 6.508l-2.25.723-2.01.634c-1.947.63-1.947.63-3.6 1.725-3.259 1.36-6.056 1.228-9.585 1.233l-2.23.012c-2.478.01-4.956.006-7.434.002l-5.368.016c-4.928.014-9.855.016-14.783.015-5.31.002-10.62.015-15.93.027-11.616.022-23.232.03-34.847.035q-10.875.006-21.748.017c-20.061.02-40.123.036-60.184.04h-3.892l-7.811.001h-3.917l-3.921.001c-20.98.004-41.96.03-62.94.068q-32.29.057-64.58.058c-12.092 0-24.183.009-36.275.038q-15.441.038-30.882.017a2777 2777 0 0 0-15.763.016q-7.211.03-14.422-.003-2.613-.005-5.225.016a436 436 0 0 1-7.09-.015l-3.982.002c-4.62-.817-6.231-2.34-9.523-5.623-1.363-2.726-1.13-4.876-1.137-7.93l-.015-3.853-.002-4.274-.013-4.509q-.017-6.217-.022-12.436-.01-6.697-.029-13.395-.034-16.185-.052-32.372l-.011-9.139a83769 83769 0 0 1-.07-69.858l-.001-3.3a32218 32218 0 0 0-.088-52.938q-.063-27.157-.071-54.316c-.004-10.17-.015-20.34-.048-30.51q-.044-12.99-.028-25.98c.005-4.42.002-8.84-.022-13.26q-.033-6.068-.003-12.135a362 362 0 0 0-.018-4.394c-.118-12.31-.118-12.31 3.043-16.249 4.371-3.636 7.817-3.294 13.302-3.28"/><path fill="#FE3041" d="M737 535c5.922 24.32 2.939 48.55-9.375 70.484-2.12 3.282-4.601 6.143-7.305 8.957-4.005 7.761-.478 18.529 1.055 26.621l.672 3.682q.651 3.534 1.338 7.062c.381 1.98.739 3.964 1.058 5.954.625 3.55 1.038 5.759 3.729 8.256l2.578 1.234 2.715 1.438L736 670c8.408 5.207 11.315 14.964 14 24l3.41.297c12.091 1.14 23.598 2.84 34.7 8.07 6.244 2.89 12.617 4.975 19.202 6.946l1.896.574c13.063 3.936 26.338 6.714 39.746 9.198l2.357.457q2.147.418 4.302.788c6.679 1.318 12.418 4.488 18.387 7.67l.018-2.106q.087-9.822.218-19.643c.044-3.366.084-6.732.11-10.099.034-3.87.086-7.74.142-11.609l.02-3.665.06-3.397.033-2.994c.475-2.96 1.077-3.662 3.399-5.487 1.966-.375 1.966-.375 4.25-.375l2.64-.022 2.904.023 3.082-.012c3.425-.01 6.85.002 10.274.014q3.674-.004 7.347-.011c5.97-.009 11.94-.003 17.91.009 6.95.013 13.899.012 20.848.01q18.596-.003 37.19.028 18.055.029 36.11.02a29537 29537 0 0 1 43.484.01l2.082.001q7.27.005 14.54.002 9.78-.002 19.56.022 3.598.006 7.195.002c3.264-.003 6.527.006 9.79.018l2.904-.011 2.64.018 2.284.002C1127 669 1127 669 1130 671c.375 2.88.375 2.88.374 6.643l.012 2.092c.01 2.325-.002 4.65-.014 6.974q.004 2.493.011 4.986c.01 4.523 0 9.045-.013 13.568-.011 4.725-.007 9.45-.005 14.175q0 11.904-.029 23.808a9234 9234 0 0 0-.018 27.555q.006 13.235-.011 26.468-.007 5.641-.004 11.283.003 6.637-.022 13.277-.006 2.44-.002 4.883c.003 2.215-.006 4.43-.018 6.645l-.007 3.763C1130 840 1130 840 1128 842c-2.434.193-4.753.26-7.188.24l-2.27.006c-2.522.003-5.045-.008-7.568-.019h-5.41c-4.906.002-9.813-.01-14.72-.024-5.123-.013-10.247-.014-15.37-.016-9.708-.006-19.416-.023-29.123-.043-11.05-.022-22.099-.033-33.148-.043Q979.1 842.068 945 842q1.398 2.823 2.802 5.644l1.575 3.175c2.481 4.864 5.196 9.584 7.936 14.306l3.175 5.508 1.392 2.403A83 83 0 0 1 964 877l3.938.063c7.525.625 12.243 6.855 17.074 12.136 2.177 1.972 3.673 2.568 6.488 3.301 3.76 1.14 6.132 2.206 8.5 5.5v3l2.86-.105c10.597-.224 21.633-.126 30.14 7.105 3.349 3.258 4.745 6.055 5.09 10.773-.371 9.201-5.384 18.853-12.078 25.075-2.69 2.878-4.13 6.179-5.762 9.715-3.415 7.134-7.383 13.188-12.25 19.437l-2 3c-2.977.366-5.754.534-8.741.579l-2.746.074c-3.01.075-6.021.124-9.033.167l-3.12.049q-8.192.118-16.385.181-6.759.06-13.516.246a699 699 0 0 1-16.346.244q-3.105.03-6.206.138c-16.98.558-16.98.558-22.974-4.898-2.875-3.078-5.32-6.371-7.644-9.878-1.993-2.941-4.264-5.612-6.539-8.34l-2.14-2.683L889 950h-1l-3 27-5.597.06a1673847 1673847 0 0 0-148.913 1.594l-3.302.036-52.441.56q-27.045.288-54.09.58-15.13.163-30.262.323a109172 109172 0 0 0-36.772.396c-27.7.303-55.397.673-83.094 1.136-18.84.313-37.672.447-56.514.384q-5.51-.014-11.017-.02-10.5-.016-20.998-.049l.415-1.64a14139 14139 0 0 0 6.049-24.007c3.13-12.458 6.19-24.91 8.849-37.478 2.258-10.572 5.309-20.726 8.735-30.972 2.145-6.54 4.108-13.139 6.112-19.724 5.547-18.145 5.547-18.145 8.824-26.077 2.5-6.113 4.364-12.408 6.266-18.727l1.102-3.621Q429.68 815.378 431 811l-18-1v-64c21.688-.125 21.688-.125 28.448-.118 11.442-.1 19.52-1.081 29.552-6.882 6.453-2.462 12.939-3.501 19.754-4.473 7.502-1.218 14.3-3.48 21.246-6.527q2.87-.956 5.75-1.875c4.932-1.611 9.534-3.575 14.223-5.781 3.518-1.562 7.101-2.899 10.715-4.219 7.589-2.785 14.964-5.96 22.345-9.25 3.273-1.456 6.555-2.889 9.842-4.312l3.43-1.497C581 700 581 700 583 700l.188-2.875c1.265-8.581 6.454-16.404 12.812-22.125 9.64-7 9.64-7 13-7l-.219-2.168c-.71-7.632-.892-15.17-.781-22.832q2.5.403 5 .813l3.383.542c2.32.414 4.63.89 6.922 1.446 19.59 4.522 40.775 2.71 60.695 1.199v-5l1.758-.516 2.367-.734 2.32-.703c11.622-4.763 21.05-15.299 26.696-26.262 1.197-3.88 1.113-7.5 1.047-11.535l-.02-2.423c-.07-5.334-.386-10.546-1.168-15.827l1.828-.113c3.503-.288 6.499-.592 9.735-2.012 2.251-2.937 1.692-5.226 1.437-8.875-.822-3.168-1.91-6.228-3-9.312-4.925-14.77-4.925-14.77-1.875-22.563 3.573-4.049 6.42-6.125 11.875-6.125"/><path fill="#090814" d="M495.597 868.168c21.424 1.673 42.851 2.807 64.32 3.703l6.104.258c39.998 1.702 79.927 2.22 119.956 2.185q8.117-.004 16.235.022c31.778.094 63.488-.059 95.23-1.719l3.585-.187c18.72-1.006 37.387-2.526 56.037-4.427 21.83-2.208 21.83-2.208 28.936 1.997 4.628 4.994 5.193 8.32 5.187 14.937v2.562c-.076 9.285-.595 18.546-1.125 27.813l-.131 2.34q-.192 3.355-.396 6.711l-.238 3.947c-.29 3.595-.778 7.122-1.297 10.69-.11 1.558-.195 3.118-.246 4.68l-.1 2.57q-.09 2.566-.172 5.133c-.233 5.873-.799 11.662-1.506 17.492l-.284 2.375q-.344 2.876-.692 5.75a731342 731342 0 0 1-154.565 1.709l-3.303.036q-26.231.289-52.462.582-27.053.302-54.106.597-15.137.164-30.275.335c-46.432.525-92.854.89-139.289.741l-.008-17.008c-.01-15.415.214-30.815.588-46.226q.113-4.765.188-9.53c.063-3.928.15-7.853.253-11.78q.053-2.204.08-4.409c.104-7.979.217-14.898 5.899-21.047 9.27-7.89 26.17-3.732 37.597-2.832"/><path fill="#2F2E41" d="M271 745h55l1 14c1.692 4.533 2.717 6.827 6.188 10 4.871 1.732 9.558 1.512 14.562.375 4.05-2.475 6.738-5.839 8.25-10.375l1-14h55l1 102 6 1a132 132 0 0 1-4.75 17.313 516 516 0 0 0-6.312 19.812l-.749 2.51a5356 5356 0 0 0-2.905 9.787c-.67 2.258-1.351 4.512-2.034 6.765l-.602 2.054c-.49 1.605-1.062 3.186-1.648 4.759-3.184 1.592-6.619 1.116-10.113 1.089l-2.578-.008q-4.311-.016-8.622-.043l-6.181-.025a13061 13061 0 0 1-16.942-.08q-8.99-.045-17.977-.08c-24.76-.107-49.518-.242-74.278-.379l-11.83-.064-3.934-.022-27.397-.15c-28.728-.162-57.453-.276-86.181-.168q-7.899.03-15.798.033l-2.137.002q-5.107.002-10.216.001c-7.515.003-15.028.051-22.542.135-4.497.04-8.992.034-13.489.016q-3 0-5.998.06c-15.933.317-15.933.317-21.882-5.157-2.144-2.261-4.038-4.667-5.905-7.16a259 259 0 0 0-3.375-3.75L29 891q-1.463-1.67-2.93-3.336c-6.445-7.344-12.66-14.809-18.632-22.543-1.71-2.19-3.44-4.297-5.25-6.398C0 856 0 856 0 854l2.55.017q30.695.2 61.392.294c9.896.03 19.792.073 29.688.142q12.936.09 25.872.112c4.568.007 9.135.026 13.703.07q6.447.059 12.893.044 2.367.002 4.736.036c2.154.03 4.305.023 6.459.007l3.654.016c4.195-1.014 4.849-3.17 7.053-6.738 2.1-.754 2.1-.754 4.391-.76l2.643-.05 2.875.037 3.046-.032c3.323-.028 6.644-.014 9.967 0q3.455-.016 6.91-.041a2554 2554 0 0 1 18.19-.03c7.274.002 14.549-.042 21.823-.078 11.052-.05 22.103-.042 33.155-.046z"/><path fill="#090814" d="M662.272 428.684c2.492.004 4.982-.02 7.474-.045 20.988-.083 40.93 4.44 56.691 19.299 5.285 5.608 7.678 11.726 9.657 19.082 1.197 2.615 2.403 3.581 4.906 4.98 2.49.287 2.49.287 5.062.063 4.625-.272 4.625-.272 7.938 1.937.7 2.663.777 5.24 1 8l3.75-.187c2.741-.138 4.065.09 6.52 1.386C767 485 767 485 767.215 487.375l-.278 2.625c-.179 2.635-.179 2.635.063 5 2.356 1.88 2.356 1.88 5 3 1.163 3.133 1.119 4.664-.004 7.832C763.677 521.74 755.872 527.848 739 534c-8.419 3.204-8.419 3.204-14 10-.9 8.097 1.195 14.585 3.865 22.135 1.65 4.769 2.65 8.74 2.135 13.865-1.938 2.438-1.938 2.438-5 4-3.033.31-5.964.238-9 0l1 3.375c2.149 9.897 3.185 22.41-2.258 31.328C707.408 629.69 698.787 638.978 685 642l-1 5c-18.96 5.503-45.001 3.932-64-1l-3.266-.691C603.33 642.36 588.632 634.817 581 623a71 71 0 0 1-2.129-6.852c-.752-2.264-.752-2.264-2.656-3.902-3.092-3.136-4.985-6.713-7.09-10.558l-1.33-2.424c-12.964-24.053-16.968-49.643-16.983-76.701l-.037-3.698c-.031-19.76 4.082-40.356 18.037-55.24 9.682-9.059 19.577-12.721 32.602-12.758 2.348.12 4.34.469 6.586 1.133l.008-1.723c.282-5.628 1.446-8.785 5.383-12.843 6.131-5.462 13.341-6.756 21.25-7.54l2.51-.254c8.372-.785 16.716-.978 25.121-.956"/><path fill="#585757" d="M1301 764c2.014.271 2.014.271 4.188.313 5.198.491 8.87 2.281 12.812 5.687 3.632 4.88 3.81 10.129 3 16-1.333 4.417-3.601 7.103-7.562 9.438-3.514 1.502-6.41 1.73-10.215 1.66l-2.973-.043L1298 797q-1.072 11.184-2.136 22.37-.362 3.804-.728 7.609-.524 5.469-1.042 10.939l-.332 3.435-.303 3.214-.27 2.82c-.183 2.532-.189 5.074-.189 7.613l81 1c-3.66 5.49-7.03 10.484-11.312 15.375q-1.455 1.687-2.907 3.375l-1.433 1.664c-1.938 2.28-3.795 4.622-5.66 6.961-4.286 5.273-8.881 10.219-13.553 15.148l-1.705 1.801-1.636 1.69c-1.821 1.933-1.821 1.933-3.243 4.058-2.343 3.216-4.195 5.53-8.095 6.675-3.128.296-6.17.337-9.312.293l-3.608.046c-3.294.034-6.584.032-9.877.015-3.556-.01-7.111.026-10.667.057-6.96.051-13.919.06-20.88.054-8.104-.005-16.209.03-24.314.065-14.46.061-28.92.083-43.38.083q-21.048 0-42.097.105a13522 13522 0 0 1-53.163.167c-5.65.01-11.3.034-16.951.062q-10.326.051-20.651.03c-3.513-.008-7.025-.006-10.538.022-3.806.03-7.61.013-11.416-.009l-3.373.049c-7.324-.097-7.324-.097-9.984-2.122-1.349-1.623-1.349-1.623-3.245-4.664-6.76-4.853-15.77-4.726-23.775-5.054-2.5-.15-4.8-.319-7.225-.946-1.988-2.46-1.988-2.46-3-5-2.822-2.117-4.829-2.968-8.312-3.625-4.69-1.748-6.697-4.355-9.793-8.184-3.257-3.766-5.631-5.51-10.645-5.879l-2.422-.199L964 878l-1-3 2.712-.013q32.622-.155 65.245-.326 15.775-.085 31.551-.158 13.746-.065 27.492-.14 7.283-.04 14.564-.072 6.848-.03 13.696-.071 2.52-.015 5.038-.023 3.427-.014 6.856-.039l3.882-.02c2.894.066 2.894.066 4.964-1.138q.04-2.281.063-4.562l.035-2.567c-.113-3.309-.63-6.594-1.098-9.871l84-1c-.712-10.779-.712-10.779-1.971-21.413l-.566-3.853-.297-1.977q-.466-3.135-.918-6.274c-.857-5.936-1.721-11.87-2.609-17.802q-.818-5.487-1.598-10.98-.3-2.07-.616-4.14c-2.5-16.327-2.5-16.327.575-21.561 4.32-3.576 7.426-4.517 12.98-4.654l2.033-.065c2.201-.067 4.402-.106 6.604-.144q2.313-.06 4.625-.125 4.839-.129 9.678-.223c4.119-.082 8.236-.185 12.353-.296 3.948-.106 7.896-.2 11.844-.294l2.257-.057C1296 760.667 1296 760.667 1301 764m4 4c-1.468 5.091-2.901 10.189-4.25 15.313l-.602 2.166c-.473 1.819-.82 3.67-1.148 5.521 2.36 2.36 3.02 2.344 6.25 2.438 3.422-.078 5.48-.5 8.188-2.625 3.58-3.93 4.627-5.983 4.437-11.313-.987-3.949-1.929-5.709-4.875-8.5-3.814-2.154-3.814-2.154-8-3"/><path fill="#3F3D56" d="m71.248 341.746 2.845-.01c3.165-.009 6.329-.003 9.493.003l6.854-.011c6.291-.01 12.583-.008 18.875-.004 6.084.002 12.168-.005 18.252-.012 13.984-.015 27.968-.017 41.951-.014a57037 57037 0 0 0 44.052-.01q32.587-.013 65.176-.008h2.483q6.228.002 12.458.003h2.499l5.003.002q38.932.007 77.863-.021a103082 103082 0 0 1 96.77-.027h2.318q17.337.001 34.674-.015 19.714-.019 39.427-.002 10.063.012 20.126-.005 9.206-.014 18.412.007 3.336.003 6.672-.008c3.017-.01 6.033-.002 9.05.011l2.633-.022c6.727.06 11.414 1.326 16.679 5.772 3.996 4.796 4.477 9.08 4.414 15.17v2.248c0 2.44-.016 4.88-.032 7.32l-.008 5.09c-.008 4.458-.028 8.914-.05 13.371-.02 4.552-.03 9.103-.04 13.655-.02 8.923-.055 17.847-.097 26.771l-12 3-.025-2.782q-.116-12.978-.263-25.956-.076-6.672-.134-13.344-.056-6.438-.136-12.877-.029-2.457-.045-4.914c-.017-2.293-.046-4.586-.078-6.88l-.04-3.957c-.26-3.071-.417-4.853-2.279-7.29-4.236-1.373-8.553-1.142-12.958-1.134l-2.788-.007q-4.657-.009-9.316-.006l-6.719-.011q-9.258-.014-18.517-.017-8.951-.005-17.902-.02c-15.988-.02-31.976-.03-47.965-.04l-22.682-.014a192099 192099 0 0 0-82.49-.042h-2.441l-14.698-.005q-39.413-.013-78.824-.064a74677 74677 0 0 0-92.447-.058h-2.273q-18.13-.007-36.26-.04-18.21-.03-36.42-.016c-6.582.005-13.162.003-19.743-.016q-9.027-.026-18.055-.001-3.274.003-6.549-.014a853 853 0 0 0-8.869.01l-2.596-.031c-4.032.047-6.007.22-9.493 2.432-3.231 3.392-3.122 5.428-3.13 10.026l-.013 3.856v4.276q-.004 2.255-.01 4.51-.014 6.222-.017 12.443-.007 6.7-.022 13.401c-.02 10.795-.03 21.59-.039 32.385q-.007 7.62-.015 15.238a87442 87442 0 0 0-.044 63.78l-.002 3.3c-.008 17.654-.033 35.307-.066 52.96q-.049 27.167-.054 54.333c-.002 10.174-.011 20.348-.036 30.522a7168 7168 0 0 0-.02 25.987c.004 4.422.002 8.844-.017 13.266a1482 1482 0 0 0-.001 12.137q.004 2.2-.014 4.397c-.015 1.99-.003 3.978.01 5.967l-.003 3.35c.615 3.654 1.95 5.321 4.498 7.96 2.967 1.484 5.633 1.132 8.946 1.139l2.202.008q3.69.012 7.379.011l5.314.015q7.33.02 14.66.028 7.894.013 15.787.034 13.686.033 27.373.056 19.787.035 39.575.08 32.101.071 64.203.132 31.191.058 62.382.125l3.882.008 19.277.041q80.01.17 160.02.323c-3.561 2.374-6.745 2.71-10.875 3.312-8.665 1.39-17.11 3.586-24.65 8.25-4.725 1.955-8.844 1.814-13.905 1.731l-2.662-.01c-3.261-.015-6.522-.057-9.783-.096L413 746v65h-1v-66h-55v14c-2.515 5.03-3.9 7.5-8 11-5.504 1.8-11.042 1.887-16.312-.5-3.781-3.517-4.937-5.518-6.688-10.5v-14h-55v65h-34l-1-64-15.846-.028c-17.266-.034-34.533-.09-51.8-.156-10.47-.04-20.94-.072-31.41-.087q-13.69-.019-27.38-.084a2962 2962 0 0 0-14.494-.037q-6.825 0-13.651-.05-2.502-.013-5.002-.004C60.605 745.6 60.605 745.6 54 741c-4.051-5.09-5.124-8.82-5.131-15.222l-.012-3.974.003-4.392-.01-4.646q-.011-6.4-.01-12.8-.005-6.895-.016-13.792-.02-15.086-.024-30.173-.005-9.417-.012-18.833-.019-26.062-.026-52.125v-6.75l-.002-6.78v-3.396q-.009-27.249-.046-54.498-.035-27.963-.037-55.926.001-15.705-.025-31.41-.023-13.374-.012-26.747.008-6.825-.011-13.649-.019-6.247 0-12.495a639 639 0 0 0-.01-4.52c-.085-15.768-.085-15.768 5.756-22.685 5.357-4.464 10.186-4.475 16.873-4.441"/><path fill="#585758" d="M0 854q30.95-.047 61.9.202 5.42.043 10.841.084 10.178.079 20.354.16l23.247.18A256763 256763 0 0 1 164 855q-.23 2.162-.464 4.324l-.262 2.432c-.306 2.505-.809 4.916-1.399 7.369-.92 4.326-.811 7.568.125 11.875 2.738.913 4.346 1.129 7.164 1.139l2.583.016 2.839.003 3.015.015c3.349.016 6.697.024 10.046.032l7.184.03q7.744.032 15.489.056 11.198.035 22.395.08 18.165.071 36.332.132a85370 85370 0 0 1 48.406.174q45.274.17 90.547.323l-1.418 5.71-.797 3.212a238 238 0 0 1-3.348 11.765l-.63 2.124c-.542 1.75-1.167 3.473-1.807 5.189-3.184 1.592-6.619 1.116-10.113 1.089l-2.578-.008q-4.311-.016-8.622-.043l-6.181-.025a13061 13061 0 0 1-16.942-.08q-8.99-.045-17.977-.08c-24.76-.107-49.518-.242-74.278-.379l-11.83-.064-3.934-.022-27.397-.15c-28.728-.162-57.453-.276-86.181-.168q-7.899.03-15.798.033l-2.137.002q-5.107.002-10.216.001c-7.515.003-15.028.051-22.542.135-4.497.04-8.992.034-13.489.016q-3 0-5.998.06c-15.933.317-15.933.317-21.882-5.157-2.144-2.261-4.038-4.667-5.905-7.16a259 259 0 0 0-3.375-3.75L29 891q-1.463-1.67-2.93-3.336c-6.445-7.344-12.66-14.809-18.632-22.543-1.71-2.19-3.44-4.297-5.25-6.398C0 856 0 856 0 854"/><path fill="#E5E5E5" d="M1301 764c2.014.271 2.014.271 4.188.313 5.198.491 8.87 2.281 12.812 5.687 3.632 4.88 3.81 10.129 3 16-1.333 4.417-3.601 7.103-7.562 9.438-3.514 1.502-6.41 1.73-10.215 1.66l-2.973-.043L1298 797l-.17 1.904a7798 7798 0 0 1-1.801 19.861q-.337 3.691-.666 7.384c-3.44 38.565-3.44 38.565-9.363 44.851-8.564 4.282-23.482 2.25-33.017 2.295q-2.57.018-5.14.062c-2.511.042-5.022.058-7.534.069l-2.308.053c-3.66-.015-5.803-.356-8.942-2.299-4.179-4.425-4.231-10.387-5.059-16.18l-.958-3.265c-1.025-3.675-1.672-7.222-2.219-10.996-.1-.69-.202-1.378-.306-2.088q-.492-3.383-.97-6.768l-.336-2.354q-.88-6.16-1.744-12.324c-.593-4.224-1.206-8.445-1.823-12.666-.474-3.265-.934-6.532-1.39-9.8q-.33-2.336-.675-4.667c-2.66-18.034-2.66-18.034.421-23.072 4.327-3.57 7.424-4.517 12.98-4.654l2.033-.065c2.201-.067 4.402-.106 6.604-.144q2.313-.06 4.625-.125 4.839-.129 9.678-.223c4.119-.082 8.236-.185 12.353-.296 3.948-.106 7.896-.2 11.844-.294l2.257-.057C1296 760.667 1296 760.667 1301 764m4 4c-1.468 5.091-2.901 10.189-4.25 15.313l-.602 2.166c-.473 1.819-.82 3.67-1.148 5.521 2.36 2.36 3.02 2.344 6.25 2.438 3.422-.078 5.48-.5 8.188-2.625 3.58-3.93 4.627-5.983 4.437-11.313-.987-3.949-1.929-5.709-4.875-8.5-3.814-2.154-3.814-2.154-8-3"/><path fill="#3E3C55" d="m884.21 663.372 3.183-.022c3.53-.017 7.06 0 10.59.019q3.789-.008 7.578-.022c6.156-.016 12.31-.01 18.467.008a4319 4319 0 0 0 17.163.013l4.336-.003c12.786-.008 25.572.008 38.357.038q18.615.044 37.232.02a15978 15978 0 0 1 44.85.003l2.147.003q7.495.007 14.991-.005 10.086-.01 20.172.032 3.708.01 7.416 0c3.366-.009 6.731.007 10.097.03l2.987-.026c6.467.08 6.467.08 9.832 2.126 1.914 3.32 1.884 5.728 1.873 9.556l.01 2.182c.007 2.414-.015 4.826-.037 7.239q-.001 2.595.002 5.189c.001 4.698-.023 9.396-.05 14.094-.025 4.913-.028 9.826-.033 14.738-.012 9.308-.045 18.615-.085 27.922-.045 10.583-.067 21.166-.087 31.749q-.062 31.32-.19 62.638c-.016 4.602.527 7.616 2.188 11.939 2.372 6.42 3.987 13.309 2.801 20.168-3.714 2.476-5.568 2.247-10.004 2.24l-2.174.006c-2.409.003-4.818-.008-7.227-.019h-5.174c-4.687.002-9.375-.01-14.063-.024-4.897-.013-9.793-.014-14.69-.016-9.275-.006-18.55-.023-27.826-.043-10.559-.022-21.117-.033-31.676-.043Q994.583 875.068 962 875l-1.345-2.43q-2.475-4.471-4.954-8.94l-2.141-3.868-3.083-5.563-1.873-3.38A97 97 0 0 0 945 845v-3l2.855-.013q34.337-.155 68.674-.326 16.605-.085 33.21-.158 14.467-.065 28.934-.14 7.665-.04 15.33-.072 7.206-.03 14.412-.071 2.654-.015 5.306-.023 3.606-.014 7.211-.039l2.15-.003c3.239.246 3.239.246 5.918-1.155.097-2.177.122-4.357.12-6.536l.003-2.094q.001-3.499-.01-6.997l.001-4.996q-.001-6.803-.013-13.604c-.006-4.734-.006-9.468-.008-14.202q-.005-13.457-.021-26.913-.015-15.315-.022-30.63-.016-31.515-.05-63.028c-2.296-1.148-3.576-1.126-6.13-1.129l-2.636-.01-2.914.005-3.082-.007q-5.145-.007-10.29-.004l-7.351-.01q-8.966-.011-17.933-.012-7.284 0-14.57-.006-20.634-.014-41.27-.012h-4.5q-18.075-.002-36.148-.023-18.54-.023-37.08-.02-10.416.001-20.832-.014-9.79-.014-19.58-.003-3.603.003-7.206-.007c-3.266-.008-6.532-.003-9.798.005l-2.914-.016-2.637.014h-2.286c-2.091.093-2.091.093-3.843 2.249-.332 2.507-.332 2.507-.319 5.46l-.06 3.457-.035 3.747-.059 3.825q-.073 5.035-.128 10.071c-.04 3.426-.091 6.85-.141 10.276Q875.115 718.918 875 729l-6-3q.056-11.019.184-22.037c.04-3.41.072-6.821.087-10.233.018-3.925.068-7.849.12-11.773l.003-3.7.06-3.457.027-3.035c1.622-8.644 7.316-8.482 14.73-8.393"/><path fill="#E6E6E6" d="m229.445 587.619 2.932-.014c3.251-.012 6.502-.003 9.754.007q3.49-.007 6.982-.016c6.328-.014 12.657-.008 18.985.001 5.946.007 11.892.002 17.838-.003 12.495-.008 24.99.002 37.485.018q16.083.018 32.164-.003 18.674-.025 37.346-.013c6.59.004 13.18.005 19.771-.005q9.294-.013 18.588.015 3.415.006 6.83-.004c3.103-.008 6.205.002 9.308.017l2.742-.02c4.753.044 8.001.262 11.83 3.401 2.599 4.032 3.876 7.228 3 12-2.463 3.764-4.68 6.56-9 8a62 62 0 0 1-4.038.137l-2.498.015-2.744.002-2.915.013c-3.238.014-6.476.02-9.714.026l-6.948.025c-7.617.026-15.233.041-22.85.055l-7.859.017a33828 33828 0 0 1-41.16.06l-2.13.002c-11.383.013-22.766.046-34.15.088q-17.53.063-35.06.071c-6.562.004-13.123.016-19.685.048q-9.258.044-18.514.025-3.4 0-6.8.025c-3.092.023-6.182.015-9.274-.001l-2.724.042c-4.287-.054-7.076-.318-10.478-3.063-3.422-3.6-3.75-5.577-3.678-10.556.403-3.743 2.23-5.982 4.738-8.644 3.854-2.155 7.582-1.8 11.926-1.768M229.204 532.86l2.928-.01q4.885-.01 9.772-.011l6.98-.015q9.507-.019 19.011-.024 5.934-.005 11.867-.012 16.423-.019 32.846-.026h4.254l4.272-.002h2.14q17.167-.009 34.336-.046 17.62-.035 35.24-.037 9.895 0 19.791-.025 9.307-.023 18.613-.01 3.42.002 6.839-.013c3.107-.013 6.214-.007 9.322.004l2.746-.025c4.761.038 7.999.254 11.839 3.392 2.345 3.44 3.01 5.384 2.937 9.562-1.19 4.367-2.873 7.207-6.816 9.559-2.267.94-3.809 1.13-6.25 1.133-1.23.01-1.23.01-2.484.018l-2.711-.011-2.893.011c-3.208.01-6.415.007-9.622.003q-3.445.007-6.89.015c-6.243.014-12.487.014-18.73.012q-7.814 0-15.627.008c-12.99.012-25.98.011-38.97.005-11.28-.006-22.56.006-33.84.025q-17.375.03-34.748.024c-6.503-.002-13.005 0-19.508.014q-9.172.018-18.345-.002-3.367-.004-6.736.009c-3.063.01-6.126.002-9.189-.01l-2.698.022c-5.905-.052-10.15-1.031-14.755-5.022-1.783-3.764-1.9-7.3-1.125-11.375 4.008-7.155 8.673-7.148 16.204-7.14"/><path fill="#F34" d="m267.363 476.733 3.968-.026 4.348.002q2.292-.008 4.584-.02c4.148-.018 8.297-.022 12.446-.024q3.889-.001 7.777-.01 13.569-.028 27.137-.026c8.43.002 16.859-.02 25.288-.051q10.86-.038 21.718-.036c4.323 0 8.646-.005 12.968-.026q6.1-.029 12.199-.005 2.235.003 4.472-.015c2.038-.015 4.077-.003 6.115.01l3.454-.004c3.92.617 6.077 2.044 9.163 4.498 2.698 4.048 2.657 7.247 2 12-1.686 3.434-2.811 5.393-6.24 7.143-3.205.995-5.88 1.12-9.237 1.138l-3.967.034-4.333.007-4.579.03c-4.14.027-8.28.04-12.421.048q-3.883.01-7.765.023-12.154.042-24.308.055-14.017.014-28.036.102-10.845.063-21.69.066c-4.315.002-8.63.014-12.946.05-4.06.033-8.12.037-12.18.02q-2.23-.004-4.46.026c-12.621.158-12.621.158-17.215-3.662-2.108-2.211-3.612-3.91-3.643-7.068.459-5.148 1.102-8.318 5.02-12.012 3.45-2.206 6.315-2.256 10.363-2.267"/><path fill="#EB9B9E" d="M737 535c5.922 24.32 2.939 48.55-9.375 70.484-2.12 3.282-4.601 6.143-7.305 8.957-4.017 7.785-.448 18.517 1.117 26.621 1.447 7.638 2.838 15.194 3.563 22.938l-4.687-.684L718 663l-3.617-.52c-4.836-.594-9.64-.712-14.508-.73l-2.887-.012c-6.886.055-13.504.759-20.3 1.824-7.186 1.117-13.757 1.574-20.995.955-6.503-.557-12.98-.715-19.505-.767l-3.11-.064c-6.55-.03-12.287.87-18.588 2.667C612 667 612 667 609 667c-.9-8.023-1.115-15.93-1-24q2.5.403 5 .813l3.383.542c2.32.414 4.63.89 6.922 1.446 19.59 4.522 40.775 2.71 60.695 1.199v-5l1.758-.516 2.367-.734 2.32-.703c11.622-4.763 21.05-15.299 26.696-26.262 1.197-3.88 1.113-7.5 1.047-11.535l-.02-2.423c-.07-5.334-.386-10.546-1.168-15.827l1.828-.113c3.503-.288 6.499-.592 9.735-2.012 2.251-2.937 1.692-5.226 1.437-8.875-.822-3.168-1.91-6.228-3-9.312-4.925-14.77-4.925-14.77-1.875-22.563 3.573-4.049 6.42-6.125 11.875-6.125"/><path fill="#433C55" d="m884.21 663.372 3.183-.022c3.53-.017 7.06 0 10.59.019q3.789-.008 7.578-.022c6.156-.016 12.31-.01 18.467.008a4319 4319 0 0 0 17.163.013l4.336-.003c12.786-.008 25.572.008 38.357.038q18.615.044 37.232.02a15978 15978 0 0 1 44.85.003l2.147.003q7.495.007 14.991-.005 10.086-.01 20.172.032 3.708.01 7.416 0c3.366-.009 6.731.007 10.097.03l2.987-.026c6.467.08 6.467.08 9.832 2.125 1.915 3.322 1.887 5.739 1.88 9.57l.012 2.187c.01 2.418-.01 4.835-.03 7.252q0 2.6.007 5.2c.005 4.706-.014 9.412-.038 14.118-.022 4.92-.021 9.838-.023 14.757q-.011 12.386-.06 24.773c-.04 10.614-.057 21.227-.067 31.84q-.014 13.665-.045 27.332l-.016 8.808a6418 6418 0 0 1-.042 13.811q-.009 2.543-.013 5.084-.007 3.453-.026 6.908l-.013 3.914C1135 844 1135 844 1134 845c-2.441.098-4.854.13-7.295.12l-2.342.003c-2.609.002-5.217-.004-7.826-.01l-5.587.001q-7.608-.001-15.216-.013c-5.294-.006-10.589-.006-15.883-.008q-15.05-.005-30.1-.021-17.13-.015-34.259-.022-35.246-.016-70.492-.05v-3l2.855-.013q34.337-.155 68.674-.326 16.605-.085 33.21-.158 14.467-.065 28.934-.14 7.665-.04 15.33-.072 7.206-.03 14.412-.071 2.654-.015 5.306-.023 3.606-.014 7.211-.039l2.15-.003c3.239.246 3.239.246 5.918-1.155.097-2.177.122-4.357.12-6.536l.003-2.094q.001-3.499-.01-6.997l.001-4.996q-.001-6.803-.013-13.604c-.006-4.734-.006-9.468-.008-14.202q-.005-13.457-.021-26.913-.015-15.315-.022-30.63-.016-31.515-.05-63.028c-2.296-1.148-3.576-1.126-6.13-1.129l-2.636-.01-2.914.005-3.082-.007q-5.145-.007-10.29-.004l-7.351-.01q-8.966-.011-17.933-.012-7.284 0-14.57-.006-20.634-.014-41.27-.012h-4.5q-18.075-.002-36.148-.023-18.54-.023-37.08-.02-10.416.001-20.832-.014-9.79-.014-19.58-.003-3.603.003-7.206-.007c-3.266-.008-6.532-.003-9.798.005l-2.914-.016-2.637.014h-2.286c-2.091.093-2.091.093-3.843 2.249-.332 2.507-.332 2.507-.319 5.46l-.06 3.457-.035 3.747-.059 3.825q-.073 5.035-.128 10.071c-.04 3.426-.091 6.85-.141 10.276Q875.115 718.918 875 729l-6-3q.056-11.019.184-22.037c.04-3.41.072-6.821.087-10.233.018-3.925.068-7.849.12-11.773l.003-3.7.06-3.457.027-3.035c1.622-8.644 7.316-8.482 14.73-8.393"/><path fill="#302F41" d="M946 845q36.495-.106 72.99-.155 16.944-.022 33.889-.071 14.764-.046 29.53-.056c5.214-.004 10.428-.013 15.642-.035q7.356-.03 14.713-.022 2.704-.001 5.41-.019c2.455-.014 4.91-.011 7.366-.003l2.178-.026c2.848.026 4.8.05 7.175 1.708 4.403 6.679 5.554 17.004 5.54 24.824C1140 873 1140 873 1137 875c-3.102.246-3.102.246-7.004.24l-2.174.006c-2.409.003-4.818-.008-7.227-.019h-5.174c-4.687.002-9.375-.01-14.063-.024-4.897-.013-9.793-.014-14.69-.016-9.275-.006-18.55-.023-27.826-.043a27207 27207 0 0 0-31.676-.043Q994.583 875.068 962 875l-6-12h173l-4-13v-3H946z"/><path fill="#E6E6E6" d="M237 746h34v64h-34z"/><path fill="#4B4960" d="M87 400h505v4H87z"/><path fill="#E6E4E4" d="M413 746h44l-5 5c-2.558 5.117-4.25 10.54-5.996 15.977l-.833 2.567q-.868 2.68-1.732 5.36-1.303 4.04-2.613 8.076c-3.017 9.318-5.976 18.65-8.826 28.02l-19-1z"/><path fill="#ED9C9F" d="M1001 901c11.124-.444 23.062-.597 32 7 3.349 3.258 4.745 6.055 5.09 10.773-.391 9.698-5.822 18.506-12.188 25.547C1024 946 1024 946 1022 946q-3.53-6.77-7.043-13.55a2342 2342 0 0 0-2.392-4.596C1001 905.679 1001 905.679 1001 901"/><path fill="#D6D6E3" d="M1296 762c-7.47 10.707-19.567 12.428-31.687 14.688-14.053 1.325-29.09.404-40.376-8.813-1.722-1.508-1.722-1.508-2.937-2.875v-2q13.339-.428 26.679-.834 6.195-.188 12.388-.387 5.982-.191 11.963-.37 2.28-.069 4.557-.144 3.199-.104 6.398-.195l3.674-.114c3.225.042 6.18.422 9.341 1.044"/><path fill="#E4E4E4" d="M327 746h29c.938 16.071.938 16.071-3.25 20.938-4.281 4.162-8.74 4.419-14.5 4.343-3.562-.445-5.596-1.943-8.25-4.281-3.317-4.266-3.367-8.119-3.187-13.312z"/><path fill="#46445C" d="M207 366c3.157 1.607 5.194 2.974 7.375 5.75.96 3.453 1.193 6.728.625 10.25-2.304 3.84-4.923 6.156-9 8-3.398.425-5.452.222-8.625-1.062-4.012-3.273-6.042-6.897-6.875-12 .644-3.786 2.124-5.951 4.5-8.938 4.043-2.695 7.251-2.665 12-2"/><path fill="#45445C" d="M127 366c3.5 2.042 5.806 4.09 7 8 .756 6.694.756 6.694-1.05 9.816-2.435 2.98-4.286 4.978-8.157 5.457-7.061.276-7.061.276-10.793-2.523-3.235-4.449-4.677-7.107-4-12.75 4.292-7.696 8.579-9.103 17-8"/><path fill="#424058" d="M166 366c4.165 1.759 6.209 3.852 8 8 .536 5.006.107 8.005-3 12-3.782 3.372-6.648 3.62-11.586 3.496-2.77-.57-3.684-1.227-5.476-3.371-2.761-4.453-3.836-7.865-2.938-13.125 3.655-6.369 7.922-7.749 15-7"/><path fill="#3E3C55" d="M985 867h66v5h-66z"/><path fill="#FFE3E6" d="m1019.034 801.861 2.56.006 2.611-.003q2.739 0 5.478.006c2.805.005 5.61 0 8.415-.007q2.655 0 5.308.004l2.56-.006c5.919.024 5.919.024 7.034 1.139.125 2.5.125 2.5 0 5-1.87 1.87-4.547 1.129-7.034 1.139l-2.56-.006-2.611.003q-2.739 0-5.478-.006-4.207-.005-8.415.007-2.655 0-5.308-.004l-2.56.006c-5.919-.024-5.919-.024-7.034-1.139-.125-2.5-.125-2.5 0-5 1.87-1.87 4.547-1.129 7.034-1.139M1053.034 731.861l2.56.006 2.611-.003q2.739 0 5.478.006c2.805.005 5.61 0 8.415-.007q2.655 0 5.308.004l2.56-.006c5.919.024 5.919.024 7.034 1.139.125 2.5.125 2.5 0 5-1.838 1.838-4.41 1.129-6.856 1.139l-2.484-.006-2.537.003q-2.663 0-5.324-.006-4.082-.005-8.164.007-2.581 0-5.162-.004l-2.478.006c-5.765-.024-5.765-.024-7.995-1.139a100 100 0 0 1 0-5c1.87-1.87 4.547-1.129 7.034-1.139"/><path fill="#FFE4E6" d="m968.034 731.861 2.56.006 2.611-.003q2.739 0 5.478.006c2.805.005 5.61 0 8.415-.007q2.655 0 5.308.004l2.56-.006c5.919.024 5.919.024 7.034 1.139.04 1.666.043 3.334 0 5-3.27 1.635-6.88 1.142-10.473 1.133l-2.54.003q-2.659 0-5.318-.006-4.085-.005-8.171.007-2.58 0-5.158-.004l-2.484.006c-5.741-.024-5.741-.024-6.856-1.139-.125-2.5-.125-2.5 0-5 1.87-1.87 4.547-1.129 7.034-1.139M936.34 801.832l2.537-.01q2.663-.007 5.324-.007c2.722-.002 5.443-.02 8.164-.04q2.581-.005 5.162-.005l2.478-.022c5.766.023 5.766.023 7.995 2.252v4c-3.27 1.635-6.88 1.142-10.473 1.133l-2.54.003q-2.659 0-5.318-.006c-2.724-.005-5.447 0-8.171.007q-2.58 0-5.158-.004l-2.484.006c-5.741-.024-5.741-.024-6.856-1.139-.125-2.5-.125-2.5 0-5 2.07-2.07 6.488-1.164 9.34-1.168"/><path fill="#FFF3F4" d="M944 789h40l1 5c-1.87 1.87-4.547 1.129-7.034 1.139l-2.56-.006-2.611.003q-2.739 0-5.478-.006c-2.805-.005-5.61 0-8.415.007q-2.655 0-5.308-.004l-2.56.006c-5.919-.024-5.919-.024-7.034-1.139z"/><path fill="#FFF1F2" d="M1033.785 718.886q2.532 0 5.063.016l2.686.005c2.843.005 5.686.018 8.529.03q2.884.008 5.767.014 7.085.017 14.17.049c.043 1.666.04 3.334 0 5-1 1-1 1-4.694 1.114q-2.467 0-4.935-.016l-2.619-.005c-2.771-.005-5.543-.018-8.314-.03q-2.813-.008-5.624-.014-6.907-.017-13.814-.049a88 88 0 0 1-1-5c1-1 1-1 4.785-1.114M944 719h40l1 5c-1.87 1.87-4.547 1.129-7.034 1.139l-2.56-.006-2.611.003q-2.739 0-5.478-.006c-2.805-.005-5.61 0-8.415.007q-2.655 0-5.308-.004l-2.56.006c-5.919-.024-5.919-.024-7.034-1.139z"/><path fill="#FFF8F8" d="M965.694 774.886q2.467 0 4.935.016l2.619.005c2.771.005 5.543.018 8.314.03q2.813.008 5.624.014 6.907.017 13.814.049a88 88 0 0 1 1 5c-1 1-1 1-4.694 1.114q-2.468 0-4.935-.016l-2.619-.005c-2.771-.005-5.543-.018-8.315-.03q-2.81-.008-5.623-.014-6.907-.017-13.814-.049a88 88 0 0 1-1-5c1-1 1-1 4.694-1.114"/><path fill="#FFFCFC" d="M982.694 760.886q2.467 0 4.935.016l2.619.005c2.771.005 5.543.018 8.314.03q2.813.008 5.624.014 6.907.017 13.814.049a88 88 0 0 1 1 5c-1 1-1 1-4.694 1.114q-2.468 0-4.935-.016l-2.619-.005c-2.771-.005-5.543-.018-8.315-.03q-2.81-.008-5.623-.014-6.907-.017-13.814-.049a88 88 0 0 1-1-5c1-1 1-1 4.694-1.114"/><path fill="#FFF3F4" d="M982.694 745.886q2.467 0 4.935.016l2.619.005c2.771.005 5.543.018 8.314.03q2.813.008 5.624.014 6.907.017 13.814.049a88 88 0 0 1 1 5c-1 1-1 1-4.694 1.114q-2.468 0-4.935-.016l-2.619-.005c-2.771-.005-5.543-.018-8.315-.03q-2.81-.008-5.623-.014-6.907-.017-13.814-.049a88 88 0 0 1-1-5c1-1 1-1 4.694-1.114"/><path fill="#FFF6F7" d="M1016.694 704.886q2.467 0 4.935.016l2.619.005c2.771.005 5.543.018 8.314.03q2.813.008 5.624.014 6.907.017 13.814.049a88 88 0 0 1 1 5c-1 1-1 1-4.694 1.114q-2.467 0-4.935-.016l-2.619-.005c-2.771-.005-5.543-.018-8.315-.03q-2.81-.008-5.623-.014-6.907-.017-13.814-.049a88 88 0 0 1-1-5c1-1 1-1 4.694-1.114"/><path fill="#FFF6F6" d="M927 705h40l1 5c-3.27 1.635-6.88 1.142-10.473 1.133l-2.54.003q-2.659 0-5.318-.006c-2.724-.005-5.447 0-8.171.007q-2.58 0-5.158-.004l-2.484.006c-5.741-.024-5.741-.024-6.856-1.139z"/><path fill="#413F58" d="M536 377h32v4h-32z"/><path fill="#424058" d="M536 369h32v4h-32z"/><path fill="#413F57" d="M537 385h31v4h-32z"/><path fill="#FFF3F4" d="m976.285 801.902 2.778.035 2.785.028L984 802a88 88 0 0 1 1 5c-1 1-1 1-3.285 1.098l-2.778-.035-2.785-.028L974 808a88 88 0 0 1-1-5c1-1 1-1 3.285-1.098"/><path fill="#FFF0F1" d="m929.285 787.902 2.778.035 2.785.028L937 788a88 88 0 0 1 1 5c-1 1-1 1-3.285 1.098l-2.778-.035-2.785-.028L927 794a88 88 0 0 1-1-5c1-1 1-1 3.285-1.098"/><path fill="#FFF2F3" d="m993.285 718.902 2.778.035 2.785.028L1001 719a88 88 0 0 1 1 5c-1 1-1 1-3.285 1.098l-2.778-.035-2.785-.028L991 725a88 88 0 0 1-1-5c1-1 1-1 3.285-1.098M929.285 718.902l2.778.035 2.785.028L937 719a88 88 0 0 1 1 5c-1 1-1 1-3.285 1.098l-2.778-.035-2.785-.028L927 725a88 88 0 0 1-1-5c1-1 1-1 3.285-1.098"/><path fill="#FFF0F1" d="m912.285 704.902 2.778.035 2.785.028L920 705a88 88 0 0 1 1 5c-1 1-1 1-3.285 1.098l-2.778-.035-2.785-.028L910 711a88 88 0 0 1-1-5c1-1 1-1 3.285-1.098"/><path fill="#FFEFF0" d="M944 774h10a88 88 0 0 1 1 5c-1 1-1 1-3.285 1.098l-2.778-.035-2.785-.028L944 780c-1.125-3.75-1.125-3.75 0-6"/><path fill="#FFF0F2" d="m979.625 704.938 2.477.027L984 705a88 88 0 0 1 1 5c-1 1-1 1-3.285 1.098l-2.778-.035-2.785-.028L974 711l-1-5c2.405-1.203 3.95-1.1 6.625-1.062"/><path fill="#FFF2F3" d="M1026 774q2.469-.04 4.938-.062l2.777-.036C1036 774 1036 774 1037 775v5h-11z"/><path fill="#FFF9F9" d="M992 802h10a88 88 0 0 1 1 5c-1 1-1 1-3.285 1.098l-2.778-.035-2.785-.028L992 808z"/><path fill="#FFF6F7" d="M1009 788h10a88 88 0 0 1 1 5c-1 1-1 1-3.285 1.098l-2.778-.035-2.785-.028L1009 794z"/><path fill="#FFF6F6" d="M991 788h10a88 88 0 0 1 1 5c-1 1-1 1-3.285 1.098l-2.778-.035-2.785-.028L991 794z"/><path fill="#FFF3F4" d="M1008 774h10a88 88 0 0 1 1 5c-1 1-1 1-3.285 1.098l-2.778-.035-2.785-.028L1008 780z"/><path fill="#FFF0F1" d="m1046.031 759.867 2.469.008 2.469-.008C1053 760 1053 760 1054 761v5h-11c0-5.935 0-5.935 3.031-6.133M1028.031 759.867l2.469.008 2.469-.008C1035 760 1035 760 1036 761v5h-11c0-5.935 0-5.935 3.031-6.133M964.031 759.867l2.469.008 2.469-.008C971 760 971 760 972 761v5h-11c0-5.935 0-5.935 3.031-6.133"/><path fill="#FFF7F8" d="M1025 747h11v5c-1 1-1 1-3.031 1.133l-2.469-.008-2.469.008C1026 753 1026 753 1025 752zM961 747h11v5c-1 1-1 1-3.031 1.133l-2.469-.008-2.469.008C962 753 962 753 961 752z"/><path fill="#FFF9F9" d="m1046.285 746.902 2.777.035 2.786.028L1054 747c.043 1.666.04 3.334 0 5-1 1-1 1-3.066 1.098l-2.496-.035-2.504-.028L1044 753a88 88 0 0 1-1-5c1-1 1-1 3.285-1.098"/><path fill="snow" d="M1008 733h10a88 88 0 0 1 1 5c-1 1-1 1-3.031 1.133l-2.469-.008-2.469.008C1009 739 1009 739 1008 738zM944 733h10a88 88 0 0 1 1 5c-1 1-1 1-3.031 1.133l-2.469-.008-2.469.008C945 739 945 739 944 738z"/><path fill="#FFF9FA" d="m1012.066 718.902 2.496.035 2.504.028L1019 719a88 88 0 0 1 1 5c-1 1-1 1-3.285 1.098l-2.778-.035-2.785-.028L1009 725a100 100 0 0 1 0-5c1-1 1-1 3.066-1.098"/><path fill="#FFF6F6" d="m995.066 704.902 2.496.035 2.504.028L1002 705a88 88 0 0 1 1 5c-1 1-1 1-3.285 1.098l-2.778-.035-2.785-.028L992 711a100 100 0 0 1 0-5c1-1 1-1 3.066-1.098"/><path fill="#FFFDFD" d="M1027 733h9a88 88 0 0 1 1 5c-1 1-1 1-3.066 1.098l-2.496-.035-2.504-.028L1027 739c-1.125-3.75-1.125-3.75 0-6"/></svg>